<?xml version="1.0" encoding="utf-8"?>
<svg xmlns="http://www.w3.org/2000/svg"
	xmlns:xlink="http://www.w3.org/1999/xlink"
	width="8px" height="4px">
<path fill="rgb(255,255,255)" fill-rule="evenodd" d="M 3.99 1.62C 3.99 1.62 6.83 0.15 6.83 0.15 7.05-0.06 7.41-0.06 7.62 0.15 7.62 0.15 7.82 0.35 7.82 0.35 8.04 0.56 8.04 0.91 7.82 1.12 7.82 1.12 4.6 3.64 4.6 3.64 4.59 3.64 4.59 3.65 4.59 3.65 4.59 3.65 4.39 3.84 4.39 3.84 4.28 3.95 4.14 4.01 3.99 4.01 3.85 4.01 3.7 3.95 3.59 3.84 3.59 3.84 3.4 3.65 3.4 3.65 3.39 3.65 3.39 3.64 3.39 3.64 3.39 3.64 0.16 1.12 0.16 1.12-0.06 0.91-0.06 0.56 0.16 0.35 0.16 0.35 0.36 0.15 0.36 0.15 0.58-0.06 0.93-0.06 1.15 0.15 1.15 0.15 3.99 1.62 3.99 1.62Z"/>
</svg>